<svg width="15" height="15" viewBox="0 0 15 15" fill="none" xmlns="http://www.w3.org/2000/svg">
<path d="M10 13.75V11.3313C10.0234 11.0332 9.98318 10.7336 9.88188 10.4524C9.78059 10.1711 9.62058 9.91464 9.4125 9.70001C11.375 9.48126 13.4375 8.73751 13.4375 5.32501C13.4373 4.4524 13.1017 3.61326 12.5 2.98126C12.7849 2.21782 12.7648 1.37398 12.4437 0.625007C12.4437 0.625007 11.7063 0.406257 10 1.55001C8.56751 1.16177 7.05749 1.16177 5.625 1.55001C3.91875 0.406257 3.18125 0.625007 3.18125 0.625007C2.86024 1.37398 2.84009 2.21782 3.125 2.98126C2.51883 3.61794 2.18283 4.46467 2.1875 5.34376C2.1875 8.73126 4.25 9.47501 6.2125 9.71876C6.00687 9.93124 5.84829 10.1846 5.74707 10.4625C5.64585 10.7403 5.60425 11.0363 5.625 11.3313V13.75M5.625 11.875C2.5 12.8125 2.5 10.3125 1.25 10L5.625 11.875Z" stroke="black" stroke-linecap="round" stroke-linejoin="round"/>
</svg>
