<svg width="15" height="15" viewBox="0 0 15 15" fill="none" xmlns="http://www.w3.org/2000/svg">
<g clip-path="url(#clip0)">
<path d="M10.625 1.25H4.375C2.64911 1.25 1.25 2.64911 1.25 4.375V10.625C1.25 12.3509 2.64911 13.75 4.375 13.75H10.625C12.3509 13.75 13.75 12.3509 13.75 10.625V4.375C13.75 2.64911 12.3509 1.25 10.625 1.25Z" stroke="black" stroke-linecap="round" stroke-linejoin="round"/>
<path d="M10 7.10626C10.0771 7.62641 9.98829 8.15764 9.7461 8.62439C9.50391 9.09114 9.12072 9.46964 8.65102 9.70605C8.18132 9.94246 7.64903 10.0248 7.12987 9.94121C6.6107 9.85767 6.1311 9.61256 5.75927 9.24073C5.38745 8.86891 5.14233 8.3893 5.05879 7.87014C4.97525 7.35098 5.05754 6.81869 5.29395 6.34899C5.53037 5.87929 5.90887 5.49609 6.37562 5.25391C6.84236 5.01172 7.3736 4.92287 7.89375 5.00001C8.42433 5.07868 8.91553 5.32592 9.29481 5.7052C9.67409 6.08447 9.92132 6.57568 10 7.10626Z" stroke="black" stroke-linecap="round" stroke-linejoin="round"/>
</g>
<defs>
<clipPath id="clip0">
<rect width="15" height="15" fill="white"/>
</clipPath>
</defs>
</svg>
