<svg width="15" height="15" viewBox="0 0 15 15" fill="none" xmlns="http://www.w3.org/2000/svg">
<path d="M13.125 7.99375C13.0267 9.05763 12.6274 10.0715 11.9739 10.9167C11.3204 11.762 10.4397 12.4036 9.43481 12.7666C8.42995 13.1296 7.34249 13.1988 6.29969 12.9663C5.25689 12.7338 4.30187 12.2091 3.54639 11.4536C2.79091 10.6981 2.26621 9.74311 2.03369 8.70031C1.80117 7.65751 1.87045 6.57005 2.23341 5.56519C2.59638 4.56032 3.23802 3.6796 4.08326 3.0261C4.9285 2.37259 5.94237 1.97332 7.00625 1.875C6.38338 2.71767 6.08366 3.75591 6.16158 4.80088C6.23951 5.84586 6.68991 6.82816 7.43088 7.56912C8.17184 8.31009 9.15414 8.76049 10.1991 8.83842C11.2441 8.91634 12.1573 8.62287 13 8L13.125 7.99375Z" stroke="#CCCCCC" stroke-width="1.5" stroke-linecap="round" stroke-linejoin="round"/>
</svg>
