<svg width="15" height="15" viewBox="0 0 15 15" fill="none" xmlns="http://www.w3.org/2000/svg">
<path d="M12.0034 7.18092L12.0586 7.73782L12.6058 7.62056C12.7106 7.59811 12.8202 7.58617 12.932 7.58617C13.7964 7.58617 14.5 8.2903 14.5 9.15418C14.5 10.0188 13.7966 10.7222 12.932 10.7222H8.79595C8.77478 10.7222 8.74212 10.7224 8.70005 10.7228C8.49317 10.7243 8.05854 10.7276 7.64027 10.7117C7.44332 10.7041 7.26221 10.6927 7.11765 10.6766V4.61097C7.19195 4.57333 7.29842 4.52906 7.43599 4.48469C7.79244 4.36974 8.2853 4.27734 8.79595 4.27734C10.4642 4.27734 11.8424 5.55362 12.0034 7.18092Z" stroke="black"/>
<path d="M5.37683 4.60449C5.14852 4.60449 4.96323 4.78979 4.96323 5.0181V10.8085C4.96323 11.0368 5.14852 11.2221 5.37683 11.2221C5.60514 11.2221 5.79043 11.0368 5.79043 10.8085V5.0181C5.79043 4.78979 5.60514 4.60449 5.37683 4.60449Z" fill="black"/>
<path d="M3.72244 6.25879C3.49413 6.25879 3.30884 6.44408 3.30884 6.67239V10.8084C3.30884 11.0367 3.49413 11.222 3.72244 11.222C3.95075 11.222 4.13604 11.0367 4.13604 10.8084V6.67239C4.13604 6.44408 3.95075 6.25879 3.72244 6.25879Z" fill="black"/>
<path d="M2.06802 6.25879C1.83971 6.25879 1.65442 6.44408 1.65442 6.67239V10.8084C1.65442 11.0367 1.83971 11.222 2.06802 11.222C2.29633 11.222 2.48162 11.0367 2.48162 10.8084V6.67239C2.48162 6.44408 2.29633 6.25879 2.06802 6.25879Z" fill="black"/>
<path d="M0.413603 7.5C0.185294 7.5 0 7.68529 0 7.9136V10.3952C0 10.6235 0.185294 10.8088 0.413603 10.8088C0.641912 10.8088 0.827206 10.6235 0.827206 10.3952V7.9136C0.827206 7.68529 0.641912 7.5 0.413603 7.5Z" fill="black"/>
</svg>
