<svg width="15" height="15" viewBox="0 0 15 15" fill="none" xmlns="http://www.w3.org/2000/svg">
<path d="M14.375 1.875C13.7765 2.29717 13.1138 2.62007 12.4125 2.83125C12.0361 2.39844 11.5358 2.09168 10.9794 1.95245C10.423 1.81322 9.83719 1.84825 9.3013 2.05278C8.76542 2.25732 8.30528 2.6215 7.98311 3.09607C7.66095 3.57064 7.49231 4.13271 7.5 4.70625V5.33125C6.40165 5.35973 5.3133 5.11613 4.33188 4.62215C3.35046 4.12817 2.50645 3.39915 1.875 2.5C1.875 2.5 -0.625 8.125 5 10.625C3.71283 11.4987 2.17947 11.9368 0.625 11.875C6.25 15 13.125 11.875 13.125 4.6875C13.1244 4.51341 13.1077 4.33974 13.075 4.16875C13.7129 3.53968 14.163 2.74544 14.375 1.875V1.875Z" stroke="#6F6F6F" stroke-linecap="round" stroke-linejoin="round"/>
</svg>
