<svg width="60" height="60" viewBox="0 0 60 60" fill="none" xmlns="http://www.w3.org/2000/svg">
<path d="M42.5 52.5V47.5C42.5 44.8478 41.4464 42.3043 39.5711 40.4289C37.6957 38.5536 35.1522 37.5 32.5 37.5H12.5C9.84784 37.5 7.3043 38.5536 5.42893 40.4289C3.55357 42.3043 2.5 44.8478 2.5 47.5V52.5" stroke="black" stroke-width="5" stroke-linecap="round" stroke-linejoin="round"/>
<path d="M22.5 27.5C28.0228 27.5 32.5 23.0228 32.5 17.5C32.5 11.9772 28.0228 7.5 22.5 7.5C16.9772 7.5 12.5 11.9772 12.5 17.5C12.5 23.0228 16.9772 27.5 22.5 27.5Z" stroke="black" stroke-width="5" stroke-linecap="round" stroke-linejoin="round"/>
<path d="M57.5 52.5002V47.5002C57.4983 45.2845 56.7609 43.1321 55.4034 41.381C54.0459 39.6298 52.1453 38.3791 50 37.8252" stroke="black" stroke-width="5" stroke-linecap="round" stroke-linejoin="round"/>
<path d="M40 7.8252C42.151 8.37595 44.0576 9.62695 45.4191 11.381C46.7806 13.135 47.5196 15.2923 47.5196 17.5127C47.5196 19.7331 46.7806 21.8904 45.4191 23.6444C44.0576 25.3984 42.151 26.6494 40 27.2002" stroke="black" stroke-width="5" stroke-linecap="round" stroke-linejoin="round"/>
</svg>
